<mxfile host="app.diagrams.net" modified="2020-12-29T16:52:58.785Z" agent="5.0 (Windows NT 10.0; Win64; x64) AppleWebKit/537.36 (KHTML, like Gecko) Chrome/87.0.4280.88 Safari/537.36" etag="ZzLqzVAJbWTI_-kxY24j" version="14.1.3" type="github">
  <diagram id="ctLSFJHxjDkwSfDpcYS6" name="Page-1">
    <mxGraphModel dx="1422" dy="705" grid="1" gridSize="10" guides="1" tooltips="1" connect="1" arrows="1" fold="1" page="1" pageScale="1" pageWidth="850" pageHeight="1100" math="0" shadow="0">
      <root>
        <mxCell id="0" />
        <mxCell id="1" parent="0" />
        <mxCell id="GPuec8PBNYC8p6L_rXQl-1" value="" style="ellipse;whiteSpace=wrap;html=1;" parent="1" vertex="1">
          <mxGeometry x="200" y="860" width="360" height="100" as="geometry" />
        </mxCell>
        <mxCell id="GPuec8PBNYC8p6L_rXQl-4" value="" style="edgeStyle=orthogonalEdgeStyle;rounded=0;orthogonalLoop=1;jettySize=auto;html=1;" parent="1" target="GPuec8PBNYC8p6L_rXQl-3" edge="1">
          <mxGeometry relative="1" as="geometry">
            <mxPoint x="380" y="800" as="sourcePoint" />
          </mxGeometry>
        </mxCell>
        <mxCell id="GPuec8PBNYC8p6L_rXQl-8" value="" style="edgeStyle=orthogonalEdgeStyle;rounded=0;orthogonalLoop=1;jettySize=auto;html=1;" parent="1" target="GPuec8PBNYC8p6L_rXQl-6" edge="1">
          <mxGeometry relative="1" as="geometry">
            <mxPoint x="380.0344827586207" y="840.0000000000001" as="sourcePoint" />
            <Array as="points">
              <mxPoint x="380" y="780" />
              <mxPoint x="600" y="780" />
            </Array>
          </mxGeometry>
        </mxCell>
        <mxCell id="GPuec8PBNYC8p6L_rXQl-12" value="" style="edgeStyle=orthogonalEdgeStyle;rounded=0;orthogonalLoop=1;jettySize=auto;html=1;entryX=0.5;entryY=1;entryDx=0;entryDy=0;exitX=0.5;exitY=0;exitDx=0;exitDy=0;" parent="1" source="GPuec8PBNYC8p6L_rXQl-1" target="GPuec8PBNYC8p6L_rXQl-9" edge="1">
          <mxGeometry relative="1" as="geometry">
            <mxPoint x="380.0344827586207" y="840.0000000000001" as="sourcePoint" />
            <Array as="points">
              <mxPoint x="380" y="850" />
              <mxPoint x="380" y="780" />
              <mxPoint x="170" y="780" />
            </Array>
          </mxGeometry>
        </mxCell>
        <mxCell id="GPuec8PBNYC8p6L_rXQl-16" value="" style="edgeStyle=orthogonalEdgeStyle;rounded=0;orthogonalLoop=1;jettySize=auto;html=1;" parent="1" source="GPuec8PBNYC8p6L_rXQl-3" target="GPuec8PBNYC8p6L_rXQl-15" edge="1">
          <mxGeometry relative="1" as="geometry" />
        </mxCell>
        <mxCell id="GPuec8PBNYC8p6L_rXQl-18" value="" style="edgeStyle=orthogonalEdgeStyle;rounded=0;orthogonalLoop=1;jettySize=auto;html=1;entryX=0.5;entryY=1;entryDx=0;entryDy=0;" parent="1" source="GPuec8PBNYC8p6L_rXQl-3" target="GPuec8PBNYC8p6L_rXQl-19" edge="1">
          <mxGeometry relative="1" as="geometry">
            <mxPoint x="550" y="580" as="targetPoint" />
            <Array as="points">
              <mxPoint x="490" y="690" />
            </Array>
          </mxGeometry>
        </mxCell>
        <mxCell id="GPuec8PBNYC8p6L_rXQl-22" value="" style="edgeStyle=orthogonalEdgeStyle;rounded=0;orthogonalLoop=1;jettySize=auto;html=1;" parent="1" source="GPuec8PBNYC8p6L_rXQl-3" edge="1">
          <mxGeometry relative="1" as="geometry">
            <mxPoint x="215" y="570" as="targetPoint" />
            <Array as="points">
              <mxPoint x="380" y="600" />
              <mxPoint x="215" y="600" />
            </Array>
          </mxGeometry>
        </mxCell>
        <mxCell id="GPuec8PBNYC8p6L_rXQl-3" value="" style="ellipse;whiteSpace=wrap;html=1;" parent="1" vertex="1">
          <mxGeometry x="320" y="650" width="120" height="80" as="geometry" />
        </mxCell>
        <mxCell id="GPuec8PBNYC8p6L_rXQl-5" value="Голосовые нейроассистенты" style="text;html=1;strokeColor=none;fillColor=none;align=center;verticalAlign=middle;whiteSpace=wrap;rounded=0;" parent="1" vertex="1">
          <mxGeometry x="340" y="670" width="80" height="40" as="geometry" />
        </mxCell>
        <mxCell id="GPuec8PBNYC8p6L_rXQl-39" value="" style="edgeStyle=orthogonalEdgeStyle;rounded=0;orthogonalLoop=1;jettySize=auto;html=1;" parent="1" source="GPuec8PBNYC8p6L_rXQl-6" target="GPuec8PBNYC8p6L_rXQl-35" edge="1">
          <mxGeometry relative="1" as="geometry">
            <mxPoint x="600" y="620" as="targetPoint" />
            <Array as="points">
              <mxPoint x="600" y="630" />
              <mxPoint x="600" y="630" />
            </Array>
          </mxGeometry>
        </mxCell>
        <mxCell id="GPuec8PBNYC8p6L_rXQl-6" value="" style="ellipse;whiteSpace=wrap;html=1;" parent="1" vertex="1">
          <mxGeometry x="530" y="680" width="120" height="80" as="geometry" />
        </mxCell>
        <mxCell id="GPuec8PBNYC8p6L_rXQl-7" value="Мобильные нейроассистенты" style="text;html=1;strokeColor=none;fillColor=none;align=center;verticalAlign=middle;whiteSpace=wrap;rounded=0;" parent="1" vertex="1">
          <mxGeometry x="550" y="700" width="80" height="40" as="geometry" />
        </mxCell>
        <mxCell id="GPuec8PBNYC8p6L_rXQl-9" value="" style="ellipse;whiteSpace=wrap;html=1;" parent="1" vertex="1">
          <mxGeometry x="100" y="670" width="140" height="80" as="geometry" />
        </mxCell>
        <mxCell id="GPuec8PBNYC8p6L_rXQl-10" value="Методики построения нейроассистентов" style="text;html=1;strokeColor=none;fillColor=none;align=center;verticalAlign=middle;whiteSpace=wrap;rounded=0;" parent="1" vertex="1">
          <mxGeometry x="125" y="690" width="90" height="40" as="geometry" />
        </mxCell>
        <mxCell id="GPuec8PBNYC8p6L_rXQl-14" value="&lt;i&gt;&lt;span style=&quot;line-height: 107% ; font-family: &amp;#34;times new roman&amp;#34; , serif&quot;&gt;&lt;font style=&quot;font-size: 14px&quot;&gt;Анализ методик построения голосовых мобильных&lt;br&gt;нейроассистентов, управляемых данными&lt;/font&gt;&lt;/span&gt;&lt;/i&gt;" style="text;html=1;strokeColor=none;fillColor=none;align=center;verticalAlign=middle;whiteSpace=wrap;rounded=0;" parent="1" vertex="1">
          <mxGeometry x="215" y="870" width="315" height="80" as="geometry" />
        </mxCell>
        <mxCell id="GPuec8PBNYC8p6L_rXQl-15" value="" style="ellipse;whiteSpace=wrap;html=1;" parent="1" vertex="1">
          <mxGeometry x="320" y="490" width="120" height="80" as="geometry" />
        </mxCell>
        <mxCell id="GPuec8PBNYC8p6L_rXQl-17" value="Распознавание голоса" style="text;html=1;strokeColor=none;fillColor=none;align=center;verticalAlign=middle;whiteSpace=wrap;rounded=0;" parent="1" vertex="1">
          <mxGeometry x="340" y="510" width="80" height="40" as="geometry" />
        </mxCell>
        <mxCell id="GPuec8PBNYC8p6L_rXQl-19" value="" style="ellipse;whiteSpace=wrap;html=1;" parent="1" vertex="1">
          <mxGeometry x="430" y="420" width="120" height="80" as="geometry" />
        </mxCell>
        <mxCell id="GPuec8PBNYC8p6L_rXQl-21" value="Распознавание интентов" style="text;html=1;strokeColor=none;fillColor=none;align=center;verticalAlign=middle;whiteSpace=wrap;rounded=0;" parent="1" vertex="1">
          <mxGeometry x="450" y="440" width="80" height="40" as="geometry" />
        </mxCell>
        <mxCell id="GPuec8PBNYC8p6L_rXQl-23" value="" style="ellipse;whiteSpace=wrap;html=1;" parent="1" vertex="1">
          <mxGeometry x="160" y="490" width="120" height="80" as="geometry" />
        </mxCell>
        <mxCell id="GPuec8PBNYC8p6L_rXQl-24" value="" style="ellipse;whiteSpace=wrap;html=1;" parent="1" vertex="1">
          <mxGeometry x="60" y="370" width="120" height="80" as="geometry" />
        </mxCell>
        <mxCell id="GPuec8PBNYC8p6L_rXQl-25" value="Синтез речи" style="text;html=1;strokeColor=none;fillColor=none;align=center;verticalAlign=middle;whiteSpace=wrap;rounded=0;" parent="1" vertex="1">
          <mxGeometry x="180" y="510" width="80" height="40" as="geometry" />
        </mxCell>
        <mxCell id="GPuec8PBNYC8p6L_rXQl-26" value="" style="ellipse;whiteSpace=wrap;html=1;" parent="1" vertex="1">
          <mxGeometry x="220" y="370" width="120" height="80" as="geometry" />
        </mxCell>
        <mxCell id="GPuec8PBNYC8p6L_rXQl-27" value="" style="ellipse;whiteSpace=wrap;html=1;" parent="1" vertex="1">
          <mxGeometry x="695" y="630" width="120" height="80" as="geometry" />
        </mxCell>
        <mxCell id="GPuec8PBNYC8p6L_rXQl-28" value="" style="ellipse;whiteSpace=wrap;html=1;" parent="1" vertex="1">
          <mxGeometry x="595" y="390" width="120" height="80" as="geometry" />
        </mxCell>
        <mxCell id="GPuec8PBNYC8p6L_rXQl-36" value="" style="edgeStyle=orthogonalEdgeStyle;rounded=0;orthogonalLoop=1;jettySize=auto;html=1;" parent="1" source="GPuec8PBNYC8p6L_rXQl-31" target="GPuec8PBNYC8p6L_rXQl-35" edge="1">
          <mxGeometry relative="1" as="geometry">
            <Array as="points">
              <mxPoint x="680" y="580" />
            </Array>
          </mxGeometry>
        </mxCell>
        <mxCell id="GPuec8PBNYC8p6L_rXQl-45" value="" style="edgeStyle=orthogonalEdgeStyle;rounded=0;orthogonalLoop=1;jettySize=auto;html=1;entryX=0.5;entryY=1;entryDx=0;entryDy=0;" parent="1" source="GPuec8PBNYC8p6L_rXQl-31" target="GPuec8PBNYC8p6L_rXQl-44" edge="1">
          <mxGeometry relative="1" as="geometry">
            <Array as="points">
              <mxPoint x="775" y="900" />
            </Array>
          </mxGeometry>
        </mxCell>
        <mxCell id="GPuec8PBNYC8p6L_rXQl-31" value="" style="ellipse;whiteSpace=wrap;html=1;" parent="1" vertex="1">
          <mxGeometry x="610" y="870" width="120" height="80" as="geometry" />
        </mxCell>
        <mxCell id="GPuec8PBNYC8p6L_rXQl-33" value="Нейроассистенты, управляемые данными" style="text;html=1;strokeColor=none;fillColor=none;align=center;verticalAlign=middle;whiteSpace=wrap;rounded=0;" parent="1" vertex="1">
          <mxGeometry x="620" y="890" width="100" height="40" as="geometry" />
        </mxCell>
        <mxCell id="GPuec8PBNYC8p6L_rXQl-34" value="Синтез голоса" style="text;html=1;strokeColor=none;fillColor=none;align=center;verticalAlign=middle;whiteSpace=wrap;rounded=0;" parent="1" vertex="1">
          <mxGeometry x="80" y="390" width="80" height="40" as="geometry" />
        </mxCell>
        <mxCell id="GPuec8PBNYC8p6L_rXQl-35" value="" style="ellipse;whiteSpace=wrap;html=1;" parent="1" vertex="1">
          <mxGeometry x="540" y="540" width="120" height="80" as="geometry" />
        </mxCell>
        <mxCell id="GPuec8PBNYC8p6L_rXQl-37" value="" style="ellipse;whiteSpace=wrap;html=1;" parent="1" vertex="1">
          <mxGeometry x="520" y="300" width="120" height="80" as="geometry" />
        </mxCell>
        <mxCell id="GPuec8PBNYC8p6L_rXQl-38" value="Нейроассистенты" style="text;html=1;strokeColor=none;fillColor=none;align=center;verticalAlign=middle;whiteSpace=wrap;rounded=0;" parent="1" vertex="1">
          <mxGeometry x="560" y="560" width="80" height="40" as="geometry" />
        </mxCell>
        <mxCell id="GPuec8PBNYC8p6L_rXQl-40" value="" style="endArrow=classic;html=1;exitX=1;exitY=0.5;exitDx=0;exitDy=0;entryX=0.317;entryY=1.038;entryDx=0;entryDy=0;entryPerimeter=0;" parent="1" source="GPuec8PBNYC8p6L_rXQl-3" target="GPuec8PBNYC8p6L_rXQl-35" edge="1">
          <mxGeometry width="50" height="50" relative="1" as="geometry">
            <mxPoint x="500" y="670" as="sourcePoint" />
            <mxPoint x="580" y="640" as="targetPoint" />
            <Array as="points">
              <mxPoint x="490" y="690" />
              <mxPoint x="490" y="640" />
              <mxPoint x="578" y="640" />
            </Array>
          </mxGeometry>
        </mxCell>
        <mxCell id="GPuec8PBNYC8p6L_rXQl-42" value="Построение предложений" style="text;html=1;strokeColor=none;fillColor=none;align=center;verticalAlign=middle;whiteSpace=wrap;rounded=0;" parent="1" vertex="1">
          <mxGeometry x="240" y="390" width="80" height="40" as="geometry" />
        </mxCell>
        <mxCell id="GPuec8PBNYC8p6L_rXQl-43" value="Нейросети" style="text;html=1;strokeColor=none;fillColor=none;align=center;verticalAlign=middle;whiteSpace=wrap;rounded=0;" parent="1" vertex="1">
          <mxGeometry x="615" y="410" width="80" height="40" as="geometry" />
        </mxCell>
        <mxCell id="GPuec8PBNYC8p6L_rXQl-44" value="" style="ellipse;whiteSpace=wrap;html=1;" parent="1" vertex="1">
          <mxGeometry x="715" y="780" width="120" height="80" as="geometry" />
        </mxCell>
        <mxCell id="GPuec8PBNYC8p6L_rXQl-46" value="Управление данными" style="text;html=1;strokeColor=none;fillColor=none;align=center;verticalAlign=middle;whiteSpace=wrap;rounded=0;" parent="1" vertex="1">
          <mxGeometry x="725" y="800" width="100" height="40" as="geometry" />
        </mxCell>
        <mxCell id="GPuec8PBNYC8p6L_rXQl-47" value="Управление с помощью данных" style="text;html=1;strokeColor=none;fillColor=none;align=center;verticalAlign=middle;whiteSpace=wrap;rounded=0;" parent="1" vertex="1">
          <mxGeometry x="705" y="650" width="100" height="40" as="geometry" />
        </mxCell>
        <mxCell id="GPuec8PBNYC8p6L_rXQl-50" value="" style="endArrow=classic;html=1;exitX=0.558;exitY=-0.037;exitDx=0;exitDy=0;exitPerimeter=0;entryX=0.325;entryY=1.038;entryDx=0;entryDy=0;entryPerimeter=0;" parent="1" source="GPuec8PBNYC8p6L_rXQl-31" target="GPuec8PBNYC8p6L_rXQl-27" edge="1">
          <mxGeometry width="50" height="50" relative="1" as="geometry">
            <mxPoint x="810" y="850" as="sourcePoint" />
            <mxPoint x="860" y="800" as="targetPoint" />
          </mxGeometry>
        </mxCell>
        <mxCell id="GPuec8PBNYC8p6L_rXQl-54" value="" style="ellipse;whiteSpace=wrap;html=1;" parent="1" vertex="1">
          <mxGeometry x="700" y="480" width="120" height="80" as="geometry" />
        </mxCell>
        <mxCell id="GPuec8PBNYC8p6L_rXQl-56" value="" style="ellipse;whiteSpace=wrap;html=1;" parent="1" vertex="1">
          <mxGeometry x="695" y="260" width="120" height="80" as="geometry" />
        </mxCell>
        <mxCell id="GPuec8PBNYC8p6L_rXQl-58" value="" style="endArrow=classic;html=1;entryX=0.433;entryY=1.025;entryDx=0;entryDy=0;entryPerimeter=0;exitX=0;exitY=0.5;exitDx=0;exitDy=0;" parent="1" source="GPuec8PBNYC8p6L_rXQl-23" target="GPuec8PBNYC8p6L_rXQl-24" edge="1">
          <mxGeometry width="50" height="50" relative="1" as="geometry">
            <mxPoint x="70" y="530" as="sourcePoint" />
            <mxPoint x="120" y="480" as="targetPoint" />
            <Array as="points">
              <mxPoint x="112" y="530" />
            </Array>
          </mxGeometry>
        </mxCell>
        <mxCell id="GPuec8PBNYC8p6L_rXQl-59" value="" style="endArrow=classic;html=1;entryX=0.45;entryY=1;entryDx=0;entryDy=0;entryPerimeter=0;exitX=0.733;exitY=0.013;exitDx=0;exitDy=0;exitPerimeter=0;" parent="1" source="GPuec8PBNYC8p6L_rXQl-23" target="GPuec8PBNYC8p6L_rXQl-26" edge="1">
          <mxGeometry width="50" height="50" relative="1" as="geometry">
            <mxPoint x="230" y="520" as="sourcePoint" />
            <mxPoint x="280" y="470" as="targetPoint" />
          </mxGeometry>
        </mxCell>
        <mxCell id="GPuec8PBNYC8p6L_rXQl-61" value="Искусственный интеллект" style="text;whiteSpace=wrap;html=1;" parent="1" vertex="1">
          <mxGeometry x="715" y="280" width="80" height="30" as="geometry" />
        </mxCell>
        <mxCell id="GPuec8PBNYC8p6L_rXQl-62" value="" style="endArrow=classic;html=1;exitX=1;exitY=0;exitDx=0;exitDy=0;" parent="1" source="GPuec8PBNYC8p6L_rXQl-28" target="GPuec8PBNYC8p6L_rXQl-56" edge="1">
          <mxGeometry width="50" height="50" relative="1" as="geometry">
            <mxPoint x="760" y="410" as="sourcePoint" />
            <mxPoint x="810" y="360" as="targetPoint" />
          </mxGeometry>
        </mxCell>
        <mxCell id="GPuec8PBNYC8p6L_rXQl-63" value="" style="endArrow=classic;html=1;entryX=0.333;entryY=1;entryDx=0;entryDy=0;entryPerimeter=0;" parent="1" target="GPuec8PBNYC8p6L_rXQl-28" edge="1">
          <mxGeometry width="50" height="50" relative="1" as="geometry">
            <mxPoint x="600" y="540" as="sourcePoint" />
            <mxPoint x="650" y="490" as="targetPoint" />
          </mxGeometry>
        </mxCell>
        <mxCell id="GPuec8PBNYC8p6L_rXQl-64" value="" style="endArrow=classic;html=1;exitX=0.442;exitY=0.013;exitDx=0;exitDy=0;exitPerimeter=0;entryX=0.442;entryY=1.05;entryDx=0;entryDy=0;entryPerimeter=0;" parent="1" source="GPuec8PBNYC8p6L_rXQl-35" target="GPuec8PBNYC8p6L_rXQl-37" edge="1">
          <mxGeometry width="50" height="50" relative="1" as="geometry">
            <mxPoint x="550" y="520" as="sourcePoint" />
            <mxPoint x="600" y="470" as="targetPoint" />
          </mxGeometry>
        </mxCell>
        <mxCell id="GPuec8PBNYC8p6L_rXQl-67" value="Глубокое обучение" style="text;html=1;strokeColor=none;fillColor=none;align=center;verticalAlign=middle;whiteSpace=wrap;rounded=0;" parent="1" vertex="1">
          <mxGeometry x="710" y="500" width="100" height="40" as="geometry" />
        </mxCell>
        <mxCell id="GPuec8PBNYC8p6L_rXQl-68" value="Машинное обучение" style="text;html=1;strokeColor=none;fillColor=none;align=center;verticalAlign=middle;whiteSpace=wrap;rounded=0;" parent="1" vertex="1">
          <mxGeometry x="530" y="320" width="100" height="40" as="geometry" />
        </mxCell>
        <mxCell id="GPuec8PBNYC8p6L_rXQl-69" value="" style="ellipse;whiteSpace=wrap;html=1;" parent="1" vertex="1">
          <mxGeometry x="10" y="570" width="120" height="80" as="geometry" />
        </mxCell>
        <mxCell id="GPuec8PBNYC8p6L_rXQl-72" value="Распознавание текста" style="text;html=1;strokeColor=none;fillColor=none;align=center;verticalAlign=middle;whiteSpace=wrap;rounded=0;" parent="1" vertex="1">
          <mxGeometry x="30" y="590" width="80" height="40" as="geometry" />
        </mxCell>
        <mxCell id="GPuec8PBNYC8p6L_rXQl-73" value="" style="endArrow=classic;html=1;exitX=0;exitY=0.5;exitDx=0;exitDy=0;entryX=0.975;entryY=0.663;entryDx=0;entryDy=0;entryPerimeter=0;" parent="1" source="GPuec8PBNYC8p6L_rXQl-3" target="GPuec8PBNYC8p6L_rXQl-69" edge="1">
          <mxGeometry width="50" height="50" relative="1" as="geometry">
            <mxPoint x="230" y="670" as="sourcePoint" />
            <mxPoint x="280" y="620" as="targetPoint" />
          </mxGeometry>
        </mxCell>
        <mxCell id="GPuec8PBNYC8p6L_rXQl-74" value="" style="endArrow=classic;html=1;" parent="1" edge="1">
          <mxGeometry width="50" height="50" relative="1" as="geometry">
            <mxPoint x="640" y="550" as="sourcePoint" />
            <mxPoint x="700" y="530" as="targetPoint" />
          </mxGeometry>
        </mxCell>
        <mxCell id="GPuec8PBNYC8p6L_rXQl-75" value="" style="endArrow=classic;html=1;exitX=1;exitY=0.5;exitDx=0;exitDy=0;entryX=0;entryY=0.5;entryDx=0;entryDy=0;" parent="1" source="GPuec8PBNYC8p6L_rXQl-1" target="GPuec8PBNYC8p6L_rXQl-31" edge="1">
          <mxGeometry width="50" height="50" relative="1" as="geometry">
            <mxPoint x="620" y="810" as="sourcePoint" />
            <mxPoint x="660" y="850" as="targetPoint" />
          </mxGeometry>
        </mxCell>
        <mxCell id="WLGGtKFyTOPY85hE-rdN-2" value="" style="edgeStyle=orthogonalEdgeStyle;rounded=0;orthogonalLoop=1;jettySize=auto;html=1;entryX=0.223;entryY=0.916;entryDx=0;entryDy=0;entryPerimeter=0;" edge="1" parent="1" source="WLGGtKFyTOPY85hE-rdN-1" target="GPuec8PBNYC8p6L_rXQl-1">
          <mxGeometry relative="1" as="geometry">
            <mxPoint x="373" y="960" as="targetPoint" />
            <Array as="points">
              <mxPoint x="270" y="980" />
              <mxPoint x="280" y="980" />
            </Array>
          </mxGeometry>
        </mxCell>
        <mxCell id="WLGGtKFyTOPY85hE-rdN-1" value="" style="rounded=1;whiteSpace=wrap;html=1;" vertex="1" parent="1">
          <mxGeometry x="220" y="1010" width="120" height="60" as="geometry" />
        </mxCell>
        <mxCell id="WLGGtKFyTOPY85hE-rdN-9" value="" style="edgeStyle=orthogonalEdgeStyle;rounded=0;orthogonalLoop=1;jettySize=auto;html=1;" edge="1" parent="1" source="WLGGtKFyTOPY85hE-rdN-3" target="WLGGtKFyTOPY85hE-rdN-6">
          <mxGeometry relative="1" as="geometry" />
        </mxCell>
        <mxCell id="WLGGtKFyTOPY85hE-rdN-3" value="" style="rounded=1;whiteSpace=wrap;html=1;" vertex="1" parent="1">
          <mxGeometry x="370" y="1010" width="180" height="60" as="geometry" />
        </mxCell>
        <mxCell id="WLGGtKFyTOPY85hE-rdN-11" value="" style="edgeStyle=orthogonalEdgeStyle;rounded=0;orthogonalLoop=1;jettySize=auto;html=1;" edge="1" parent="1" source="WLGGtKFyTOPY85hE-rdN-4" target="WLGGtKFyTOPY85hE-rdN-8">
          <mxGeometry relative="1" as="geometry" />
        </mxCell>
        <mxCell id="WLGGtKFyTOPY85hE-rdN-4" value="" style="rounded=1;whiteSpace=wrap;html=1;" vertex="1" parent="1">
          <mxGeometry x="570" y="1010" width="130" height="60" as="geometry" />
        </mxCell>
        <mxCell id="WLGGtKFyTOPY85hE-rdN-6" value="Мобильная революция&lt;br&gt;2010-x" style="text;html=1;strokeColor=none;fillColor=none;align=center;verticalAlign=middle;whiteSpace=wrap;rounded=0;" vertex="1" parent="1">
          <mxGeometry x="220" y="1030" width="117.5" height="20" as="geometry" />
        </mxCell>
        <mxCell id="WLGGtKFyTOPY85hE-rdN-7" value="Развитие глобальной сети Интернет (1980-х —&amp;nbsp; 1990-х годов)" style="text;html=1;strokeColor=none;fillColor=none;align=center;verticalAlign=middle;whiteSpace=wrap;rounded=0;" vertex="1" parent="1">
          <mxGeometry x="565" y="1030" width="135" height="20" as="geometry" />
        </mxCell>
        <mxCell id="WLGGtKFyTOPY85hE-rdN-8" value="Создание алгоритмов глубокого обучения многослойных нейронных сетей в 2007" style="text;html=1;strokeColor=none;fillColor=none;align=center;verticalAlign=middle;whiteSpace=wrap;rounded=0;" vertex="1" parent="1">
          <mxGeometry x="370" y="1020" width="180" height="40" as="geometry" />
        </mxCell>
        <mxCell id="WLGGtKFyTOPY85hE-rdN-14" value="" style="edgeStyle=orthogonalEdgeStyle;rounded=0;orthogonalLoop=1;jettySize=auto;html=1;" edge="1" parent="1" source="WLGGtKFyTOPY85hE-rdN-13" target="WLGGtKFyTOPY85hE-rdN-7">
          <mxGeometry relative="1" as="geometry" />
        </mxCell>
        <mxCell id="WLGGtKFyTOPY85hE-rdN-13" value="" style="rounded=1;whiteSpace=wrap;html=1;" vertex="1" parent="1">
          <mxGeometry x="720" y="1010" width="130" height="60" as="geometry" />
        </mxCell>
        <mxCell id="WLGGtKFyTOPY85hE-rdN-15" value="Развитие персональных компьютеров в 1970х&amp;nbsp;" style="text;html=1;strokeColor=none;fillColor=none;align=center;verticalAlign=middle;whiteSpace=wrap;rounded=0;" vertex="1" parent="1">
          <mxGeometry x="715" y="1030" width="135" height="20" as="geometry" />
        </mxCell>
      </root>
    </mxGraphModel>
  </diagram>
</mxfile>
